HIERARCHY
ROOT Hips
{
  OFFSET 12.5924 87.7646 8.5502
  CHANNELS 6 Xposition Yposition Zposition Zrotation Xrotation Yrotation
  JOINT RightUpLeg
  {
    OFFSET -9.27424 -1.51647 -0.00177081
    CHANNELS 3 Zrotation Xrotation Yrotation
    JOINT RightLeg
    {
      OFFSET -0.0218595 -41.9179 0.0996455
      CHANNELS 3 Zrotation Xrotation Yrotation
      JOINT RightFoot
      {
        OFFSET -0.864559 -41.9626 -0.357059
        CHANNELS 3 Zrotation Xrotation Yrotation
        End Site
        {
          OFFSET 0 -7.69 17.5
        }
      }
    }
  }
  JOINT LeftUpLeg
  {
    OFFSET 9.25718 -1.5867 0.052377
    CHANNELS 3 Zrotation Xrotation Yrotation
    JOINT LeftLeg
    {
      OFFSET 0.0916619 -41.8676 0.000817906
      CHANNELS 3 Zrotation Xrotation Yrotation
      JOINT LeftFoot
      {
        OFFSET -0.467602 -41.8546 0.208385
        CHANNELS 3 Zrotation Xrotation Yrotation
        End Site
        {
          OFFSET 0 -7.69 17.5
        }
      }
    }
  }
  JOINT Spine
  {
    OFFSET 0.0181296 14.2981 0.0454815
    CHANNELS 3 Zrotation Xrotation Yrotation
    JOINT Spine1
    {
      OFFSET 0.0179205 9.71532 0.0144816
      CHANNELS 3 Zrotation Xrotation Yrotation
      JOINT Spine2
      {
        OFFSET 0.0460832 10.1118 -0.00781291
        CHANNELS 3 Zrotation Xrotation Yrotation
        JOINT Spine3
        {
          OFFSET 0.0326005 9.72657 -0.000132442
          CHANNELS 3 Zrotation Xrotation Yrotation
          JOINT Neck
          {
            OFFSET -0.0594321 10.3688 0.0892585
            CHANNELS 3 Zrotation Xrotation Yrotation
            JOINT Head
            {
              OFFSET -0.027184 9.52116 0.11923
              CHANNELS 3 Zrotation Xrotation Yrotation
              End Site
              {
                OFFSET 0 15.95 0
              }
            }
          }
          JOINT RightShoulder
          {
            OFFSET -3.18249 6.94712 0.0315742
            CHANNELS 3 Zrotation Xrotation Yrotation
            JOINT RightArm
            {
              OFFSET -12.6859 -0.0281953 -0.0223312
              CHANNELS 3 Zrotation Xrotation Yrotation
              JOINT RightForeArm
              {
                OFFSET -26.4349 -0.138904 0.103809
                CHANNELS 3 Zrotation Xrotation Yrotation
                JOINT RightHand
                {
                  OFFSET -26.0404 -0.036643 0.02476
                  CHANNELS 3 Zrotation Xrotation Yrotation
                  JOINT RightHandThumb1
                  {
                    OFFSET -2.48905 0.190105 3.12053
                    CHANNELS 3 Zrotation Xrotation Yrotation
                    JOINT RightHandThumb2
                    {
                      OFFSET -3.68274 0 0
                      CHANNELS 3 Zrotation Xrotation Yrotation
                      JOINT RightHandThumb3
                      {
                        OFFSET -2.55832 0 0
                        CHANNELS 3 Zrotation Xrotation Yrotation
                        End Site
                        {
                          OFFSET -2.194 0 0
                        }
                      }
                    }
                  }
                  JOINT RightInHandIndex
                  {
                    OFFSET -3.22368 0.508421 1.97842
                    CHANNELS 3 Zrotation Xrotation Yrotation
                    JOINT RightHandIndex1
                    {
                      OFFSET -5.21684 -0.091368 0.999158
                      CHANNELS 3 Zrotation Xrotation Yrotation
                      JOINT RightHandIndex2
                      {
                        OFFSET -3.61937 0 0
                        CHANNELS 3 Zrotation Xrotation Yrotation
                        JOINT RightHandIndex3
                        {
                          OFFSET -2.0521 0 0
                          CHANNELS 3 Zrotation Xrotation Yrotation
                          End Site
                          {
                            OFFSET -1.805 0 0
                          }
                        }
                      }
                    }
                  }
                  JOINT RightInHandMiddle
                  {
                    OFFSET -3.38211 0.517263 0.756737
                    CHANNELS 3 Zrotation Xrotation Yrotation
                    JOINT RightHandMiddle1
                    {
                      OFFSET -5.17411 -0.084 0.313895
                      CHANNELS 3 Zrotation Xrotation Yrotation
                      JOINT RightHandMiddle2
                      {
                        OFFSET -3.94947 0 0
                        CHANNELS 3 Zrotation Xrotation Yrotation
                        JOINT RightHandMiddle3
                        {
                          OFFSET -2.47579 0 0
                          CHANNELS 3 Zrotation Xrotation Yrotation
                          End Site
                          {
                            OFFSET -1.975 0 0
                          }
                        }
                      }
                    }
                  }
                  JOINT RightInHandRing
                  {
                    OFFSET -3.36516 0.537895 -0.128947
                    CHANNELS 3 Zrotation Xrotation Yrotation
                    JOINT RightHandRing1
                    {
                      OFFSET -4.63474 -0.022105 -0.478947
                      CHANNELS 3 Zrotation Xrotation Yrotation
                      JOINT RightHandRing2
                      {
                        OFFSET -3.44238 0 0
                        CHANNELS 3 Zrotation Xrotation Yrotation
                        JOINT RightHandRing3
                        {
                          OFFSET -2.3881 0 0
                          CHANNELS 3 Zrotation Xrotation Yrotation
                          End Site
                          {
                            OFFSET -1.857 0 0
                          }
                        }
                      }
                    }
                  }
                  JOINT RightInHandPinky
                  {
                    OFFSET -3.16105 0.469368 -1.20179
                    CHANNELS 3 Zrotation Xrotation Yrotation
                    JOINT RightHandPinky1
                    {
                      OFFSET -4.14105 -0.022105 -1.09053
                      CHANNELS 3 Zrotation Xrotation Yrotation
                      JOINT RightHandPinky2
                      {
                        OFFSET -2.75653 0 0
                        CHANNELS 3 Zrotation Xrotation Yrotation
                        JOINT RightHandPinky3
                        {
                          OFFSET -1.74189 0 0
                          CHANNELS 3 Zrotation Xrotation Yrotation
                          End Site
                          {
                            OFFSET -1.645 0 0
                          }
                        }
                      }
                    }
                  }
                }
              }
            }
          }
          JOINT LeftShoulder
          {
            OFFSET 3.21289 6.91298 -0.0113859
            CHANNELS 3 Zrotation Xrotation Yrotation
            JOINT LeftArm
            {
              OFFSET 12.7691 -0.0256594 -0.0399854
              CHANNELS 3 Zrotation Xrotation Yrotation
              JOINT LeftForeArm
              {
                OFFSET 26.4177 -0.0137926 -0.00219879
                CHANNELS 3 Zrotation Xrotation Yrotation
                JOINT LeftHand
                {
                  OFFSET 26.0013 -0.0633708 -0.0119906
                  CHANNELS 3 Zrotation Xrotation Yrotation
                  JOINT LeftHandThumb1
                  {
                    OFFSET 2.48905 0.190105 3.12053
                    CHANNELS 3 Zrotation Xrotation Yrotation
                    JOINT LeftHandThumb2
                    {
                      OFFSET 3.68274 0 0
                      CHANNELS 3 Zrotation Xrotation Yrotation
                      JOINT LeftHandThumb3
                      {
                        OFFSET 2.55832 0 0
                        CHANNELS 3 Zrotation Xrotation Yrotation
                        End Site
                        {
                          OFFSET 2.194 0 0
                        }
                      }
                    }
                  }
                  JOINT LeftInHandIndex
                  {
                    OFFSET 3.22368 0.508421 1.97842
                    CHANNELS 3 Zrotation Xrotation Yrotation
                    JOINT LeftHandIndex1
                    {
                      OFFSET 5.21684 -0.091368 0.999158
                      CHANNELS 3 Zrotation Xrotation Yrotation
                      JOINT LeftHandIndex2
                      {
                        OFFSET 3.61937 0 0
                        CHANNELS 3 Zrotation Xrotation Yrotation
                        JOINT LeftHandIndex3
                        {
                          OFFSET 2.0521 0 0
                          CHANNELS 3 Zrotation Xrotation Yrotation
                          End Site
                          {
                            OFFSET 1.805 0 0
                          }
                        }
                      }
                    }
                  }
                  JOINT LeftInHandMiddle
                  {
                    OFFSET 3.38211 0.517263 0.756737
                    CHANNELS 3 Zrotation Xrotation Yrotation
                    JOINT LeftHandMiddle1
                    {
                      OFFSET 5.17411 -0.084 0.313895
                      CHANNELS 3 Zrotation Xrotation Yrotation
                      JOINT LeftHandMiddle2
                      {
                        OFFSET 3.94947 0 0
                        CHANNELS 3 Zrotation Xrotation Yrotation
                        JOINT LeftHandMiddle3
                        {
                          OFFSET 2.47579 0 0
                          CHANNELS 3 Zrotation Xrotation Yrotation
                          End Site
                          {
                            OFFSET 1.975 0 0
                          }
                        }
                      }
                    }
                  }
                  JOINT LeftInHandRing
                  {
                    OFFSET 3.36516 0.537895 -0.128947
                    CHANNELS 3 Zrotation Xrotation Yrotation
                    JOINT LeftHandRing1
                    {
                      OFFSET 4.63474 -0.022105 -0.478947
                      CHANNELS 3 Zrotation Xrotation Yrotation
                      JOINT LeftHandRing2
                      {
                        OFFSET 3.44238 0 0
                        CHANNELS 3 Zrotation Xrotation Yrotation
                        JOINT LeftHandRing3
                        {
                          OFFSET 2.3881 0 0
                          CHANNELS 3 Zrotation Xrotation Yrotation
                          End Site
                          {
                            OFFSET 1.857 0 0
                          }
                        }
                      }
                    }
                  }
                  JOINT LeftInHandPinky
                  {
                    OFFSET 3.16105 0.469368 -1.20179
                    CHANNELS 3 Zrotation Xrotation Yrotation
                    JOINT LeftHandPinky1
                    {
                      OFFSET 4.14105 -0.022105 -1.09053
                      CHANNELS 3 Zrotation Xrotation Yrotation
                      JOINT LeftHandPinky2
                      {
                        OFFSET 2.75653 0 0
                        CHANNELS 3 Zrotation Xrotation Yrotation
                        JOINT LeftHandPinky3
                        {
                          OFFSET 1.74189 0 0
                          CHANNELS 3 Zrotation Xrotation Yrotation
                          End Site
                          {
                            OFFSET 1.645 0 0
                          }
                        }
                      }
                    }
                  }
                }
              }
            }
          }
        }
      }
    }
  }
}
MOTION
Frames: 3
Frame Time: 0.00833333
1.499950420653860590e+02 3.477037101829453820e-03 5.436934652417227919e-04 4.326746060506095337e-02 -1.992343056259432768e-02 2.978247792156394139e-02 3.806776896477770400e-02 -3.170250576635800371e-02 -6.837033676255710457e-03 -4.330622165649319032e-05 -2.093990589801694030e-03 -3.330173045118445078e-03 -1.648944001350735947e-02 -9.204779187482341890e-03 8.382323113307114243e-03 2.246077045214665141e-02 -2.978757997098968949e-02 2.349931639047518617e-02 3.111573191538308247e-02 1.905386088446442460e-03 -4.920287127724742859e-02 -5.527299430232153130e-03 -1.033360953518687453e-02 1.267825231759197972e-02 2.981219823333436034e-02 -4.092716270176158938e-02 -9.703540826179077317e-02 8.107110772937364124e-03 -5.316250828200681441e-03 -2.430753354396549687e-02 1.317313890191115083e-02 -6.307956770477662553e-03 -3.209754461423791616e-02 3.286039398600352959e-04 -8.725040619769849253e-04 3.431785741046747534e-03 -2.069136882303900665e-02 -2.696414437962368557e-02 2.205882898668105885e-01 1.539520361997430593e-02 6.555520905635177364e-02 -7.157465005367953659e-02 -2.165161825813478880e-03 1.673008198396627733e-02 1.185168474881652251e-01 1.197150073335720766e+00 1.055381479771001940e+00 1.714049257708058771e-01 -3.998431879045082349e-01 -5.474125515742973569e-01 8.973786835074056834e-01 5.538835870155696395e-02 -1.988075108088503407e-01 -7.491523841793067406e-01 0.000000000000000000e+00 0.000000000000000000e+00 0.000000000000000000e+00 3.576517020981114718e-15 -3.576769943472204357e-15 0.000000000000000000e+00 -7.399384881054789717e-15 -5.348371463878110721e-15 0.000000000000000000e+00 -9.110280853228420496e-17 1.632807621569509606e-15 2.941066969431163284e-16 0.000000000000000000e+00 0.000000000000000000e+00 0.000000000000000000e+00 0.000000000000000000e+00 -4.746622940825143843e-15 -2.918555427368254976e-15 0.000000000000000000e+00 -4.817090228463406739e-16 8.282729325502058409e-15 -9.110280853228420496e-17 1.632807621569509606e-15 2.941066969431163284e-16 0.000000000000000000e+00 -3.037053732099381757e-15 3.518585428201878225e-15 0.000000000000000000e+00 4.169453865197750401e-16 -1.669750124520743278e-15 0.000000000000000000e+00 -3.415334381856689279e-15 3.542557734811749127e-15 -9.110280853228420496e-17 1.632807621569509606e-15 2.941066969431163284e-16 0.000000000000000000e+00 0.000000000000000000e+00 0.000000000000000000e+00 0.000000000000000000e+00 1.016628883600875824e-16 -7.129210982532451722e-16 0.000000000000000000e+00 -2.532862546953715240e-15 1.297761635453113530e-15 -9.110280853228420496e-17 1.632807621569509606e-15 2.941066969431163284e-16 0.000000000000000000e+00 0.000000000000000000e+00 0.000000000000000000e+00 0.000000000000000000e+00 8.210317827038264389e-15 4.607857159897550254e-15 0.000000000000000000e+00 3.384369937451058103e-15 7.963297512793834022e-15 1.422091759288766043e-02 3.329353087803902517e-02 1.379486076941136008e-01 -4.874251217423618554e-01 2.131659350650501883e-01 5.396524557739023065e-01 1.551582367205064650e-01 4.462262107883182005e-01 -4.116751160713277846e-01 4.306611098429236062e-01 -5.228439232847167384e-01 1.698095916591331855e+00 0.000000000000000000e+00 0.000000000000000000e+00 0.000000000000000000e+00 -1.349515150271383901e-15 5.078569115227924170e-15 0.000000000000000000e+00 4.993796624244733750e-16 3.007210357655317388e-15 0.000000000000000000e+00 1.253413408850516032e-15 2.616770521739319202e-16 7.425899731699797719e-16 0.000000000000000000e+00 0.000000000000000000e+00 0.000000000000000000e+00 0.000000000000000000e+00 3.098330083618467486e-15 6.197031069791306302e-15 0.000000000000000000e+00 2.169312995237555990e-15 2.051438303160027664e-15 1.253413408850516032e-15 2.616770521739319202e-16 7.425899731699797719e-16 0.000000000000000000e+00 3.625103314965406745e-15 1.336433890125947870e-14 0.000000000000000000e+00 -9.152924533721193373e-16 3.695214296951382702e-15 0.000000000000000000e+00 1.856025372837854090e-15 4.474971289640127162e-15 1.253413408850516032e-15 2.616770521739319202e-16 7.425899731699797719e-16 0.000000000000000000e+00 0.000000000000000000e+00 0.000000000000000000e+00 0.000000000000000000e+00 -2.719764778778220286e-15 1.330408838046741261e-14 0.000000000000000000e+00 6.550000348174720693e-16 3.598796441379708133e-15 1.253413408850516032e-15 2.616770521739319202e-16 7.425899731699797719e-16 0.000000000000000000e+00 0.000000000000000000e+00 0.000000000000000000e+00 0.000000000000000000e+00 -2.201336483940261845e-15 1.195401048449029042e-14 0.000000000000000000e+00 1.024744731004589611e-15 4.585975883136717222e-15
1.500018765208083664e+02 2.015433189151610675e-03 4.065072490258232751e-03 6.718041432597031404e-02 -1.712895503646958209e-02 6.224103525566516970e-02 3.346609120382593866e-02 -5.998906455771405716e-02 -1.571756374991133826e-02 3.707214840439197051e-02 -2.979488423660192186e-03 -6.204727311330365813e-02 -3.041030412955687823e-02 -2.691111025621376485e-03 3.442847278392729971e-02 3.231251133005794834e-02 -6.514830348529258852e-02 1.285736230426193227e-02 3.926807496236266182e-02 5.178852817669236420e-03 -4.003334262846739572e-02 -2.187547548396281266e-03 -8.780310088368090127e-03 -1.169713537565570359e-03 3.688816090613748072e-02 -5.190188056715901860e-02 -1.280540256587069381e-01 9.864369458622341061e-03 -6.922269336154304904e-03 -3.201638672244160044e-02 1.603084589064453572e-02 -8.898237221438804606e-03 -4.258534252961827110e-02 4.066339013268808556e-04 -1.459749936185259942e-03 5.066410423153351258e-03 -2.812496055953474586e-02 -2.758947783227817113e-02 2.466844739544303555e-01 1.871016669022743800e-02 6.782399126521522492e-02 -6.647346693332813194e-02 -2.898947413502146395e-02 5.366794466404244818e-02 1.302612305962661809e-01 5.354823140132253245e-01 6.142052922646440427e-01 1.670424119951291753e-01 -1.384186498401593357e-03 -5.296767022113962886e-01 2.494257710994615684e-01 -3.013843505513665311e-01 -3.528550882433732494e-01 -1.711973819153510323e+00 0.000000000000000000e+00 0.000000000000000000e+00 0.000000000000000000e+00 -6.922036067719156092e-15 -3.834951144276616440e-15 0.000000000000000000e+00 -3.931862853006194526e-15 2.433714127599928073e-15 0.000000000000000000e+00 1.325866703423160322e-15 -1.248939580746864134e-15 -1.271977623711511917e-15 0.000000000000000000e+00 0.000000000000000000e+00 0.000000000000000000e+00 0.000000000000000000e+00 -3.171593004958747881e-15 -1.136012945915167827e-14 0.000000000000000000e+00 -7.777793321445616706e-15 -1.243882189470670004e-15 1.325866703423160322e-15 -1.248939580746864134e-15 -1.271977623711511917e-15 0.000000000000000000e+00 1.023263025114959984e-14 -1.289080853129082137e-15 0.000000000000000000e+00 -5.842698240680968776e-15 -1.606657341338189211e-14 0.000000000000000000e+00 3.444692603088483821e-15 -1.684918447844872768e-14 1.325866703423160322e-15 -1.248939580746864134e-15 -1.271977623711511917e-15 0.000000000000000000e+00 0.000000000000000000e+00 0.000000000000000000e+00 0.000000000000000000e+00 -4.832392492358287807e-15 9.539065210962810143e-15 0.000000000000000000e+00 -2.784619790563644976e-15 -7.516076164667950645e-15 1.325866703423160322e-15 -1.248939580746864134e-15 -1.271977623711511917e-15 0.000000000000000000e+00 0.000000000000000000e+00 0.000000000000000000e+00 0.000000000000000000e+00 -6.384282533476433899e-16 5.855250660241760148e-16 0.000000000000000000e+00 3.384242684357221002e-15 1.844157240212020644e-15 1.787297918473099156e-02 6.120489558236506117e-02 1.509012894578631303e-01 1.744589022543056311e-01 -1.383263365632010911e-01 -2.330267934500973581e-01 8.548041489957727834e-02 1.121123982487507165e-01 -1.451948849186915080e-01 2.594465402154913503e-01 6.849734686051914268e-02 3.635718151461608261e-01 0.000000000000000000e+00 0.000000000000000000e+00 0.000000000000000000e+00 4.580810627468088077e-15 -1.921748531373521760e-14 0.000000000000000000e+00 4.021981082421179515e-15 -1.440706901146838984e-14 0.000000000000000000e+00 1.044768192467616850e-14 -7.853873903379955849e-15 8.795442480179158931e-16 0.000000000000000000e+00 0.000000000000000000e+00 0.000000000000000000e+00 0.000000000000000000e+00 2.238397414289515500e-15 3.769367593571990176e-15 0.000000000000000000e+00 -4.215618404713571653e-15 8.113997214984342903e-15 1.044768192467616850e-14 -7.853873903379955849e-15 8.795442480179158931e-16 0.000000000000000000e+00 3.899555845414909048e-15 7.065369657717398557e-15 0.000000000000000000e+00 4.515387552512331317e-16 5.998933759410042435e-15 0.000000000000000000e+00 6.596936050436048572e-15 7.113609150251556100e-15 1.044768192467616850e-14 -7.853873903379955849e-15 8.795442480179158931e-16 0.000000000000000000e+00 0.000000000000000000e+00 0.000000000000000000e+00 0.000000000000000000e+00 -9.590302022139464226e-15 1.540546721977753447e-14 0.000000000000000000e+00 3.686231496794951694e-15 4.339224124937704818e-15 1.044768192467616850e-14 -7.853873903379955849e-15 8.795442480179158931e-16 0.000000000000000000e+00 0.000000000000000000e+00 0.000000000000000000e+00 0.000000000000000000e+00 2.822003139428254452e-15 1.203405333164330551e-15 0.000000000000000000e+00 2.246099317417779077e-15 4.494540134340941262e-15
1.500061173269335484e+02 -9.137575476903548330e-04 5.192726220825178395e-03 3.464083325186276263e-02 -8.567195210959404131e-03 3.153664571227186852e-02 1.206226516242031067e-02 -3.690370846721161696e-02 4.143601796395017869e-03 5.076222355310364143e-02 -3.721034730744707166e-03 -8.677903963854730063e-02 -2.934830270190859347e-02 8.452208924167063306e-03 4.786178865454349812e-02 2.238562165297200771e-02 -3.700255491903681193e-02 -5.162447177096449180e-03 2.517091316771120999e-03 -1.761843753941131231e-03 1.202806952463542078e-02 3.660571639465533093e-03 3.864621433539596959e-03 -6.397572975059065414e-03 1.231351406496383055e-02 -3.562084263299607895e-02 -9.662290304827275689e-02 3.201706903583235488e-03 -6.268059963301013914e-03 -2.458907861592822888e-02 5.225642409932961668e-03 -9.628429150928038277e-03 -3.371784575478054685e-02 6.588805828510358072e-05 -1.529887805020113461e-03 4.878106309786784875e-03 -2.457615869230800679e-02 -1.808455438755850880e-02 1.885683571773429101e-01 1.794593238250768996e-02 4.911014768149247339e-02 -3.774702510666315403e-02 -4.808837781346389506e-02 6.933021704312181122e-02 1.145038264766094216e-01 1.592777308292209482e-01 2.667983243380934733e-01 1.800676706505696945e-01 9.124435368776201427e-02 -3.804276005369218172e-01 -3.059423681480996637e-02 -5.262981620617548373e-01 -3.784153402488065199e-01 -2.067750003637425671e+00 0.000000000000000000e+00 0.000000000000000000e+00 0.000000000000000000e+00 -6.237436895905073141e-15 4.901243092006608306e-16 0.000000000000000000e+00 -7.685602061109897034e-15 -4.315333060642785258e-15 0.000000000000000000e+00 -1.444186008252010682e-15 -4.337533522640637191e-15 2.581945347366698804e-15 0.000000000000000000e+00 0.000000000000000000e+00 0.000000000000000000e+00 0.000000000000000000e+00 -1.076468793872376798e-14 -1.487274922902942605e-14 0.000000000000000000e+00 -1.908997711293375000e-15 -1.382127476991638605e-14 -1.444186008252010682e-15 -4.337533522640637191e-15 2.581945347366698804e-15 0.000000000000000000e+00 6.256575498052799816e-16 9.269040760300949153e-15 0.000000000000000000e+00 -2.121815305179509135e-15 -2.393501334792651400e-14 0.000000000000000000e+00 -3.478627405741254687e-15 -1.676516413455146128e-14 -1.444186008252010682e-15 -4.337533522640637191e-15 2.581945347366698804e-15 0.000000000000000000e+00 0.000000000000000000e+00 0.000000000000000000e+00 0.000000000000000000e+00 -1.155185824387523369e-14 -1.032131826623657474e-14 0.000000000000000000e+00 -6.695141093759936259e-16 -1.462516730801909203e-14 -1.444186008252010682e-15 -4.337533522640637191e-15 2.581945347366698804e-15 0.000000000000000000e+00 0.000000000000000000e+00 0.000000000000000000e+00 0.000000000000000000e+00 -1.979298590968624846e-14 -1.628859336797526076e-14 0.000000000000000000e+00 -7.443924637084390238e-15 -1.700626331695363904e-14 1.373050217720690747e-02 6.704147104458334228e-02 1.126565010111413995e-01 8.181607621725566215e-01 -4.807030299127181827e-01 -9.628515719256192096e-01 -6.246355288454993188e-02 -3.334998199625326953e-01 2.454016285688739585e-01 2.117626683289405148e-02 5.583826683796286883e-01 -8.815068502060980915e-01 0.000000000000000000e+00 0.000000000000000000e+00 0.000000000000000000e+00 6.631838684155868680e-15 -9.068767754767664341e-15 0.000000000000000000e+00 3.628080921236928585e-15 9.208098309737944536e-15 0.000000000000000000e+00 1.517953817288408264e-14 -2.843820661837773762e-15 4.348260831605148164e-15 0.000000000000000000e+00 0.000000000000000000e+00 0.000000000000000000e+00 0.000000000000000000e+00 6.348292926610243315e-15 1.314307132589036655e-14 0.000000000000000000e+00 -5.771360947351358288e-15 -2.216819362915998713e-16 1.517953817288408264e-14 -2.843820661837773762e-15 4.348260831605148164e-15 0.000000000000000000e+00 -1.622290162645876701e-15 8.812581840965336758e-15 0.000000000000000000e+00 -1.476093261937150796e-15 1.649246572151364928e-14 0.000000000000000000e+00 8.379951418031645868e-15 1.198153612427222705e-14 1.517953817288408264e-14 -2.843820661837773762e-15 4.348260831605148164e-15 0.000000000000000000e+00 0.000000000000000000e+00 0.000000000000000000e+00 0.000000000000000000e+00 1.077304405853038628e-16 1.407879527400713492e-14 0.000000000000000000e+00 3.559778667085058647e-15 4.167552465335381055e-15 1.517953817288408264e-14 -2.843820661837773762e-15 4.348260831605148164e-15 0.000000000000000000e+00 0.000000000000000000e+00 0.000000000000000000e+00 0.000000000000000000e+00 -5.589957856191649548e-15 7.703360706843158987e-15 0.000000000000000000e+00 -2.490775831512865787e-15 2.506312838054034543e-15
